<svg id="my-svg" width="100%" xmlns="http://www.w3.org/2000/svg" xmlns:xlink="http://www.w3.org/1999/xlink" class="flowchart" style="max-width: 693.391px; background-color: white;" viewBox="0 0 693.390625 1160" role="graphics-document document" aria-roledescription="flowchart-v2"><style>#my-svg{font-family:"trebuchet ms",verdana,arial,sans-serif;font-size:16px;fill:#333;}@keyframes edge-animation-frame{from{stroke-dashoffset:0;}}@keyframes dash{to{stroke-dashoffset:0;}}#my-svg .edge-animation-slow{stroke-dasharray:9,5!important;stroke-dashoffset:900;animation:dash 50s linear infinite;stroke-linecap:round;}#my-svg .edge-animation-fast{stroke-dasharray:9,5!important;stroke-dashoffset:900;animation:dash 20s linear infinite;stroke-linecap:round;}#my-svg .error-icon{fill:#552222;}#my-svg .error-text{fill:#552222;stroke:#552222;}#my-svg .edge-thickness-normal{stroke-width:1px;}#my-svg .edge-thickness-thick{stroke-width:3.5px;}#my-svg .edge-pattern-solid{stroke-dasharray:0;}#my-svg .edge-thickness-invisible{stroke-width:0;fill:none;}#my-svg .edge-pattern-dashed{stroke-dasharray:3;}#my-svg .edge-pattern-dotted{stroke-dasharray:2;}#my-svg .marker{fill:#333333;stroke:#333333;}#my-svg .marker.cross{stroke:#333333;}#my-svg svg{font-family:"trebuchet ms",verdana,arial,sans-serif;font-size:16px;}#my-svg p{margin:0;}#my-svg .label{font-family:"trebuchet ms",verdana,arial,sans-serif;color:#333;}#my-svg .cluster-label text{fill:#333;}#my-svg .cluster-label span{color:#333;}#my-svg .cluster-label span p{background-color:transparent;}#my-svg .label text,#my-svg span{fill:#333;color:#333;}#my-svg .node rect,#my-svg .node circle,#my-svg .node ellipse,#my-svg .node polygon,#my-svg .node path{fill:#ECECFF;stroke:#9370DB;stroke-width:1px;}#my-svg .rough-node .label text,#my-svg .node .label text,#my-svg .image-shape .label,#my-svg .icon-shape .label{text-anchor:middle;}#my-svg .node .katex path{fill:#000;stroke:#000;stroke-width:1px;}#my-svg .rough-node .label,#my-svg .node .label,#my-svg .image-shape .label,#my-svg .icon-shape .label{text-align:center;}#my-svg .node.clickable{cursor:pointer;}#my-svg .root .anchor path{fill:#333333!important;stroke-width:0;stroke:#333333;}#my-svg .arrowheadPath{fill:#333333;}#my-svg .edgePath .path{stroke:#333333;stroke-width:2.0px;}#my-svg .flowchart-link{stroke:#333333;fill:none;}#my-svg .edgeLabel{background-color:rgba(232,232,232, 0.8);text-align:center;}#my-svg .edgeLabel p{background-color:rgba(232,232,232, 0.8);}#my-svg .edgeLabel rect{opacity:0.5;background-color:rgba(232,232,232, 0.8);fill:rgba(232,232,232, 0.8);}#my-svg .labelBkg{background-color:rgba(232, 232, 232, 0.5);}#my-svg .cluster rect{fill:#ffffde;stroke:#aaaa33;stroke-width:1px;}#my-svg .cluster text{fill:#333;}#my-svg .cluster span{color:#333;}#my-svg div.mermaidTooltip{position:absolute;text-align:center;max-width:200px;padding:2px;font-family:"trebuchet ms",verdana,arial,sans-serif;font-size:12px;background:hsl(80, 100%, 96.2745098039%);border:1px solid #aaaa33;border-radius:2px;pointer-events:none;z-index:100;}#my-svg .flowchartTitleText{text-anchor:middle;font-size:18px;fill:#333;}#my-svg rect.text{fill:none;stroke-width:0;}#my-svg .icon-shape,#my-svg .image-shape{background-color:rgba(232,232,232, 0.8);text-align:center;}#my-svg .icon-shape p,#my-svg .image-shape p{background-color:rgba(232,232,232, 0.8);padding:2px;}#my-svg .icon-shape rect,#my-svg .image-shape rect{opacity:0.5;background-color:rgba(232,232,232, 0.8);fill:rgba(232,232,232, 0.8);}#my-svg .label-icon{display:inline-block;height:1em;overflow:visible;vertical-align:-0.125em;}#my-svg .node .label-icon path{fill:currentColor;stroke:revert;stroke-width:revert;}#my-svg :root{--mermaid-font-family:"trebuchet ms",verdana,arial,sans-serif;}#my-svg .mode&gt;*{fill:#E8A838!important;stroke:#A06B1F!important;color:#fff!important;}#my-svg .mode span{fill:#E8A838!important;stroke:#A06B1F!important;color:#fff!important;}#my-svg .mode tspan{fill:#fff!important;}#my-svg .simn&gt;*{fill:#9B59B6!important;stroke:#6C3483!important;color:#fff!important;}#my-svg .simn span{fill:#9B59B6!important;stroke:#6C3483!important;color:#fff!important;}#my-svg .simn tspan{fill:#fff!important;}#my-svg .core&gt;*{fill:#4A90E2!important;stroke:#2B5C8A!important;color:#fff!important;}#my-svg .core span{fill:#4A90E2!important;stroke:#2B5C8A!important;color:#fff!important;}#my-svg .core tspan{fill:#fff!important;}#my-svg .hw&gt;*{fill:#C75050!important;stroke:#8A2D2D!important;color:#fff!important;}#my-svg .hw span{fill:#C75050!important;stroke:#8A2D2D!important;color:#fff!important;}#my-svg .hw tspan{fill:#fff!important;}</style><g><marker id="my-svg_flowchart-v2-pointEnd" class="marker flowchart-v2" viewBox="0 0 10 10" refX="5" refY="5" markerUnits="userSpaceOnUse" markerWidth="8" markerHeight="8" orient="auto"><path d="M 0 0 L 10 5 L 0 10 z" class="arrowMarkerPath" style="stroke-width: 1; stroke-dasharray: 1, 0;"/></marker><marker id="my-svg_flowchart-v2-pointStart" class="marker flowchart-v2" viewBox="0 0 10 10" refX="4.5" refY="5" markerUnits="userSpaceOnUse" markerWidth="8" markerHeight="8" orient="auto"><path d="M 0 5 L 10 10 L 10 0 z" class="arrowMarkerPath" style="stroke-width: 1; stroke-dasharray: 1, 0;"/></marker><marker id="my-svg_flowchart-v2-circleEnd" class="marker flowchart-v2" viewBox="0 0 10 10" refX="11" refY="5" markerUnits="userSpaceOnUse" markerWidth="11" markerHeight="11" orient="auto"><circle cx="5" cy="5" r="5" class="arrowMarkerPath" style="stroke-width: 1; stroke-dasharray: 1, 0;"/></marker><marker id="my-svg_flowchart-v2-circleStart" class="marker flowchart-v2" viewBox="0 0 10 10" refX="-1" refY="5" markerUnits="userSpaceOnUse" markerWidth="11" markerHeight="11" orient="auto"><circle cx="5" cy="5" r="5" class="arrowMarkerPath" style="stroke-width: 1; stroke-dasharray: 1, 0;"/></marker><marker id="my-svg_flowchart-v2-crossEnd" class="marker cross flowchart-v2" viewBox="0 0 11 11" refX="12" refY="5.2" markerUnits="userSpaceOnUse" markerWidth="11" markerHeight="11" orient="auto"><path d="M 1,1 l 9,9 M 10,1 l -9,9" class="arrowMarkerPath" style="stroke-width: 2; stroke-dasharray: 1, 0;"/></marker><marker id="my-svg_flowchart-v2-crossStart" class="marker cross flowchart-v2" viewBox="0 0 11 11" refX="-1" refY="5.2" markerUnits="userSpaceOnUse" markerWidth="11" markerHeight="11" orient="auto"><path d="M 1,1 l 9,9 M 10,1 l -9,9" class="arrowMarkerPath" style="stroke-width: 2; stroke-dasharray: 1, 0;"/></marker><g class="root"><g class="clusters"><g class="cluster" id="Hardware" data-look="classic"><rect style="" x="374.890625" y="787" width="310.5" height="365"/><g class="cluster-label" transform="translate(495.5078125, 787)"><foreignObject width="69.265625" height="24"><div xmlns="http://www.w3.org/1999/xhtml" style="display: table-cell; white-space: nowrap; line-height: 1.5; max-width: 200px; text-align: center;"><span class="nodeLabel"><p>Hardware</p></span></div></foreignObject></g></g><g class="cluster" id="Core" data-look="classic"><rect style="" x="374.890625" y="469" width="310.5" height="298"/><g class="cluster-label" transform="translate(513.5859375, 469)"><foreignObject width="33.109375" height="24"><div xmlns="http://www.w3.org/1999/xhtml" style="display: table-cell; white-space: nowrap; line-height: 1.5; max-width: 200px; text-align: center;"><span class="nodeLabel"><p>Core</p></span></div></foreignObject></g></g><g class="cluster" id="Simulation" data-look="classic"><rect style="" x="374.890625" y="8" width="310.5" height="441"/><g class="cluster-label" transform="translate(492.3203125, 8)"><foreignObject width="75.640625" height="24"><div xmlns="http://www.w3.org/1999/xhtml" style="display: table-cell; white-space: nowrap; line-height: 1.5; max-width: 200px; text-align: center;"><span class="nodeLabel"><p>Simulation</p></span></div></foreignObject></g></g><g class="cluster" id="Modes" data-look="classic"><rect style="" x="8" y="9" width="316.890625" height="1120"/><g class="cluster-label" transform="translate(116.6796875, 9)"><foreignObject width="99.53125" height="24"><div xmlns="http://www.w3.org/1999/xhtml" style="display: table-cell; white-space: nowrap; line-height: 1.5; max-width: 200px; text-align: center;"><span class="nodeLabel"><p>Launch Modes</p></span></div></foreignObject></g></g></g><g class="edgePaths"><path d="M184.806,266L208.153,231.667C231.501,197.333,278.196,128.667,305.71,94.333C333.224,60,341.557,60,349.891,60C358.224,60,366.557,60,380.885,60.982C395.212,61.963,415.533,63.927,425.694,64.909L435.854,65.89" id="L_SIM_GAZ_0" class="edge-thickness-normal edge-pattern-solid edge-thickness-normal edge-pattern-solid flowchart-link" style=";" data-edge="true" data-et="edge" data-id="L_SIM_GAZ_0" data-points="W3sieCI6MTg0LjgwNTkyODExMTU4Nzk3LCJ5IjoyNjZ9LHsieCI6MzI0Ljg5MDYyNSwieSI6NjB9LHsieCI6MzQ5Ljg5MDYyNSwieSI6NjB9LHsieCI6Mzc0Ljg5MDYyNSwieSI6NjB9LHsieCI6NDM5LjgzNTkzNzUsInkiOjY2LjI3NDkwOTQyMDI4OTg2fV0=" marker-end="url(#my-svg_flowchart-v2-pointEnd)"/><path d="M194.777,266L216.462,245.333C238.148,224.667,281.519,183.333,307.372,162.667C333.224,142,341.557,142,349.891,142C358.224,142,366.557,142,385.03,145.409C403.502,148.819,432.114,155.638,446.42,159.047L460.726,162.457" id="L_SIM_BRIDGE_0" class="edge-thickness-normal edge-pattern-solid edge-thickness-normal edge-pattern-solid flowchart-link" style=";" data-edge="true" data-et="edge" data-id="L_SIM_BRIDGE_0" data-points="W3sieCI6MTk0Ljc3NjU5MzU0MzA0NjM1LCJ5IjoyNjZ9LHsieCI6MzI0Ljg5MDYyNSwieSI6MTQyfSx7IngiOjM0OS44OTA2MjUsInkiOjE0Mn0seyJ4IjozNzQuODkwNjI1LCJ5IjoxNDJ9LHsieCI6NDY0LjYxNzE4NzUsInkiOjE2My4zODQxMDgyOTMwNzU2OH1d" marker-end="url(#my-svg_flowchart-v2-pointEnd)"/><path d="M232.555,273.39L247.944,268.825C263.333,264.26,294.112,255.13,313.668,250.565C333.224,246,341.557,246,349.891,246C358.224,246,366.557,246,377.069,247.512C387.58,249.024,400.27,252.048,406.614,253.561L412.959,255.073" id="L_SIM_JSB_0" class="edge-thickness-normal edge-pattern-solid edge-thickness-normal edge-pattern-solid flowchart-link" style=";" data-edge="true" data-et="edge" data-id="L_SIM_JSB_0" data-points="W3sieCI6MjMyLjU1NDY4NzUsInkiOjI3My4zODk4MjI5ODcwMzIyfSx7IngiOjMyNC44OTA2MjUsInkiOjI0Nn0seyJ4IjozNDkuODkwNjI1LCJ5IjoyNDZ9LHsieCI6Mzc0Ljg5MDYyNSwieSI6MjQ2fSx7IngiOjQxNi44NTAwODQ0NTk0NTk1LCJ5IjoyNTZ9XQ==" marker-end="url(#my-svg_flowchart-v2-pointEnd)"/><path d="M232.555,316.783L247.944,322.319C263.333,327.855,294.112,338.928,313.668,344.464C333.224,350,341.557,350,349.891,350C358.224,350,366.557,350,377.069,351.512C387.58,353.024,400.27,356.048,406.614,357.561L412.959,359.073" id="L_SIM_FPC_0" class="edge-thickness-normal edge-pattern-solid edge-thickness-normal edge-pattern-solid flowchart-link" style=";" data-edge="true" data-et="edge" data-id="L_SIM_FPC_0" data-points="W3sieCI6MjMyLjU1NDY4NzUsInkiOjMxNi43ODI1NTUxMDA4MzMzfSx7IngiOjMyNC44OTA2MjUsInkiOjM1MH0seyJ4IjozNDkuODkwNjI1LCJ5IjozNTB9LHsieCI6Mzc0Ljg5MDYyNSwieSI6MzUwfSx7IngiOjQxNi44NTAwODQ0NTk0NTk1LCJ5IjozNjB9XQ==" marker-end="url(#my-svg_flowchart-v2-pointEnd)"/><path d="M185.291,320L208.558,353.333C231.824,386.667,278.357,453.333,305.791,486.667C333.224,520,341.557,520,349.891,520C358.224,520,366.557,520,386.291,527.22C406.025,534.439,437.159,548.878,452.726,556.098L468.293,563.317" id="L_SIM_CTRL_0" class="edge-thickness-normal edge-pattern-solid edge-thickness-normal edge-pattern-solid flowchart-link" style=";" data-edge="true" data-et="edge" data-id="L_SIM_CTRL_0" data-points="W3sieCI6MTg1LjI5MTIzMDcyNjg3MjI0LCJ5IjozMjB9LHsieCI6MzI0Ljg5MDYyNSwieSI6NTIwfSx7IngiOjM0OS44OTA2MjUsInkiOjUyMH0seyJ4IjozNzQuODkwNjI1LCJ5Ijo1MjB9LHsieCI6NDcxLjkyMTg3NSwieSI6NTY1fV0=" marker-end="url(#my-svg_flowchart-v2-pointEnd)"/><path d="M178.296,320L202.728,375.667C227.161,431.333,276.026,542.667,304.625,598.333C333.224,654,341.557,654,349.891,654C358.224,654,366.557,654,381.311,656.864C396.064,659.728,417.238,665.456,427.825,668.32L438.412,671.185" id="L_SIM_DASH_0" class="edge-thickness-normal edge-pattern-solid edge-thickness-normal edge-pattern-solid flowchart-link" style=";" data-edge="true" data-et="edge" data-id="L_SIM_DASH_0" data-points="W3sieCI6MTc4LjI5NTc5MjkzNjI4ODA4LCJ5IjozMjB9LHsieCI6MzI0Ljg5MDYyNSwieSI6NjU0fSx7IngiOjM0OS44OTA2MjUsInkiOjY1NH0seyJ4IjozNzQuODkwNjI1LCJ5Ijo2NTR9LHsieCI6NDQyLjI3MzQzNzUsInkiOjY3Mi4yMjkxNjY2NjY2NjY2fV0=" marker-end="url(#my-svg_flowchart-v2-pointEnd)"/><path d="M178.102,442L202.567,385.333C227.032,328.667,275.961,215.333,304.593,158.667C333.224,102,341.557,102,349.891,102C358.224,102,366.557,102,380.891,100.232C395.225,98.464,415.56,94.927,425.728,93.159L435.895,91.391" id="L_PC_GAZ_0" class="edge-thickness-normal edge-pattern-solid edge-thickness-normal edge-pattern-solid flowchart-link" style=";" data-edge="true" data-et="edge" data-id="L_PC_GAZ_0" data-points="W3sieCI6MTc4LjEwMjA1MjExMTcxNjYzLCJ5Ijo0NDJ9LHsieCI6MzI0Ljg5MDYyNSwieSI6MTAyfSx7IngiOjM0OS44OTA2MjUsInkiOjEwMn0seyJ4IjozNzQuODkwNjI1LCJ5IjoxMDJ9LHsieCI6NDM5LjgzNTkzNzUsInkiOjkwLjcwNTE2MzA0MzQ3ODI3fV0=" marker-end="url(#my-svg_flowchart-v2-pointEnd)"/><path d="M182.712,442L206.408,402.667C230.105,363.333,277.498,284.667,305.361,245.333C333.224,206,341.557,206,349.891,206C358.224,206,366.557,206,385.022,203.513C403.486,201.027,432.081,196.054,446.379,193.567L460.676,191.081" id="L_PC_BRIDGE_0" class="edge-thickness-normal edge-pattern-solid edge-thickness-normal edge-pattern-solid flowchart-link" style=";" data-edge="true" data-et="edge" data-id="L_PC_BRIDGE_0" data-points="W3sieCI6MTgyLjcxMTU2MTMxMTc4NzA4LCJ5Ijo0NDJ9LHsieCI6MzI0Ljg5MDYyNSwieSI6MjA2fSx7IngiOjM0OS44OTA2MjUsInkiOjIwNn0seyJ4IjozNzQuODkwNjI1LCJ5IjoyMDZ9LHsieCI6NDY0LjYxNzE4NzUsInkiOjE5MC4zOTUzODA0MzQ3ODI2Mn1d" marker-end="url(#my-svg_flowchart-v2-pointEnd)"/><path d="M193.351,442L215.274,420C237.198,398,281.044,354,307.134,332C333.224,310,341.557,310,349.891,310C358.224,310,366.557,310,376.583,308.981C386.608,307.962,398.326,305.924,404.185,304.905L410.044,303.886" id="L_PC_JSB_0" class="edge-thickness-normal edge-pattern-solid edge-thickness-normal edge-pattern-solid flowchart-link" style=";" data-edge="true" data-et="edge" data-id="L_PC_JSB_0" data-points="W3sieCI6MTkzLjM1MTEyMDI4MzAxODg3LCJ5Ijo0NDJ9LHsieCI6MzI0Ljg5MDYyNSwieSI6MzEwfSx7IngiOjM0OS44OTA2MjUsInkiOjMxMH0seyJ4IjozNzQuODkwNjI1LCJ5IjozMTB9LHsieCI6NDEzLjk4NDM3NSwieSI6MzAzLjIwMTA4Njk1NjUyMTc1fV0=" marker-end="url(#my-svg_flowchart-v2-pointEnd)"/><path d="M222.735,442L239.761,433.833C256.787,425.667,290.839,409.333,312.031,401.167C333.224,393,341.557,393,349.891,393C358.224,393,366.557,393,374.224,392.865C381.892,392.729,388.893,392.459,392.393,392.324L395.894,392.188" id="L_PC_FPC_0" class="edge-thickness-normal edge-pattern-solid edge-thickness-normal edge-pattern-solid flowchart-link" style=";" data-edge="true" data-et="edge" data-id="L_PC_FPC_0" data-points="W3sieCI6MjIyLjczNTA5NDU3MjM2ODQsInkiOjQ0Mn0seyJ4IjozMjQuODkwNjI1LCJ5IjozOTN9LHsieCI6MzQ5Ljg5MDYyNSwieSI6MzkzfSx7IngiOjM3NC44OTA2MjUsInkiOjM5M30seyJ4IjozOTkuODkwNjI1LCJ5IjozOTIuMDMzODE2NDI1MTIwOH1d" marker-end="url(#my-svg_flowchart-v2-pointEnd)"/><path d="M219.26,496L236.865,505C254.47,514,289.681,532,311.452,541C333.224,550,341.557,550,349.891,550C358.224,550,366.557,550,381.481,552.91C396.406,555.82,417.921,561.641,428.678,564.551L439.436,567.461" id="L_PC_CTRL_0" class="edge-thickness-normal edge-pattern-solid edge-thickness-normal edge-pattern-solid flowchart-link" style=";" data-edge="true" data-et="edge" data-id="L_PC_CTRL_0" data-points="W3sieCI6MjE5LjI2MDQxNjY2NjY2NjY2LCJ5Ijo0OTZ9LHsieCI6MzI0Ljg5MDYyNSwieSI6NTUwfSx7IngiOjM0OS44OTA2MjUsInkiOjU1MH0seyJ4IjozNzQuODkwNjI1LCJ5Ijo1NTB9LHsieCI6NDQzLjI5Njg3NSwieSI6NTY4LjUwNjAzODY0NzM0M31d" marker-end="url(#my-svg_flowchart-v2-pointEnd)"/><path d="M187.314,496L210.243,525.667C233.173,555.333,279.032,614.667,306.128,644.333C333.224,674,341.557,674,349.891,674C358.224,674,366.557,674,381.294,675.498C396.031,676.996,417.172,679.992,427.743,681.489L438.313,682.987" id="L_PC_DASH_0" class="edge-thickness-normal edge-pattern-solid edge-thickness-normal edge-pattern-solid flowchart-link" style=";" data-edge="true" data-et="edge" data-id="L_PC_DASH_0" data-points="W3sieCI6MTg3LjMxMzcxOTUxMjE5NTEyLCJ5Ijo0OTZ9LHsieCI6MzI0Ljg5MDYyNSwieSI6Njc0fSx7IngiOjM0OS44OTA2MjUsInkiOjY3NH0seyJ4IjozNzQuODkwNjI1LCJ5Ijo2NzR9LHsieCI6NDQyLjI3MzQzNzUsInkiOjY4My41NDg2MTExMTExMTExfV0=" marker-end="url(#my-svg_flowchart-v2-pointEnd)"/><path d="M178.039,496L202.514,553C226.989,610,275.94,724,304.582,781C333.224,838,341.557,838,349.891,838C358.224,838,366.557,838,382.345,839.497C398.133,840.994,421.376,843.988,432.997,845.486L444.619,846.983" id="L_PC_DRV_0" class="edge-thickness-normal edge-pattern-solid edge-thickness-normal edge-pattern-solid flowchart-link" style=";" data-edge="true" data-et="edge" data-id="L_PC_DRV_0" data-points="W3sieCI6MTc4LjAzODg3MTk1MTIxOTUsInkiOjQ5Nn0seyJ4IjozMjQuODkwNjI1LCJ5Ijo4Mzh9LHsieCI6MzQ5Ljg5MDYyNSwieSI6ODM4fSx7IngiOjM3NC44OTA2MjUsInkiOjgzOH0seyJ4Ijo0NDguNTg1OTM3NSwieSI6ODQ3LjQ5Mzc2MDA2NDQxMjJ9XQ==" marker-end="url(#my-svg_flowchart-v2-pointEnd)"/><path d="M175.931,496L200.758,566.667C225.584,637.333,275.237,778.667,304.231,849.333C333.224,920,341.557,920,349.891,920C358.224,920,366.557,920,379.321,922.326C392.086,924.652,409.281,929.304,417.878,931.63L426.476,933.955" id="L_PC_RSP_0" class="edge-thickness-normal edge-pattern-solid edge-thickness-normal edge-pattern-solid flowchart-link" style=";" data-edge="true" data-et="edge" data-id="L_PC_RSP_0" data-points="W3sieCI6MTc1LjkzMDk1MjA1MDk5Nzc3LCJ5Ijo0OTZ9LHsieCI6MzI0Ljg5MDYyNSwieSI6OTIwfSx7IngiOjM0OS44OTA2MjUsInkiOjkyMH0seyJ4IjozNzQuODkwNjI1LCJ5Ijo5MjB9LHsieCI6NDMwLjMzNzA1MzU3MTQyODU2LCJ5Ijo5MzV9XQ==" marker-end="url(#my-svg_flowchart-v2-pointEnd)"/><path d="M175.176,585L200.128,507.833C225.081,430.667,274.986,276.333,304.105,199.167C333.224,122,341.557,122,349.891,122C358.224,122,366.557,122,381.097,118.86C395.636,115.72,416.381,109.439,426.753,106.299L437.126,103.159" id="L_PI_GAZ_0" class="edge-thickness-normal edge-pattern-solid edge-thickness-normal edge-pattern-solid flowchart-link" style=";" data-edge="true" data-et="edge" data-id="L_PI_GAZ_0" data-points="W3sieCI6MTc1LjE3NTk3MjU3NjUzMDYzLCJ5Ijo1ODV9LHsieCI6MzI0Ljg5MDYyNSwieSI6MTIyfSx7IngiOjM0OS44OTA2MjUsInkiOjEyMn0seyJ4IjozNzQuODkwNjI1LCJ5IjoxMjJ9LHsieCI6NDQwLjk1NDQ1NDc4NzIzNDA2LCJ5IjoxMDJ9XQ==" marker-end="url(#my-svg_flowchart-v2-pointEnd)"/><path d="M177.528,585L202.089,525.167C226.649,465.333,275.77,345.667,304.497,285.833C333.224,226,341.557,226,349.891,226C358.224,226,366.557,226,385.04,221.666C403.523,217.332,432.156,208.664,446.472,204.33L460.789,199.995" id="L_PI_BRIDGE_0" class="edge-thickness-normal edge-pattern-solid edge-thickness-normal edge-pattern-solid flowchart-link" style=";" data-edge="true" data-et="edge" data-id="L_PI_BRIDGE_0" data-points="W3sieCI6MTc3LjUyODI3NDc3MzMxNjA3LCJ5Ijo1ODV9LHsieCI6MzI0Ljg5MDYyNSwieSI6MjI2fSx7IngiOjM0OS44OTA2MjUsInkiOjIyNn0seyJ4IjozNzQuODkwNjI1LCJ5IjoyMjZ9LHsieCI6NDY0LjYxNzE4NzUsInkiOjE5OC44MzY0MDI5NzkwNjZ9XQ==" marker-end="url(#my-svg_flowchart-v2-pointEnd)"/><path d="M181.616,585L205.495,542.5C229.374,500,277.132,415,305.178,372.5C333.224,330,341.557,330,349.891,330C358.224,330,366.557,330,381.097,326.86C395.636,323.72,416.381,317.439,426.753,314.299L437.126,311.159" id="L_PI_JSB_0" class="edge-thickness-normal edge-pattern-solid edge-thickness-normal edge-pattern-solid flowchart-link" style=";" data-edge="true" data-et="edge" data-id="L_PI_JSB_0" data-points="W3sieCI6MTgxLjYxNTYwODM3NzY1OTU4LCJ5Ijo1ODV9LHsieCI6MzI0Ljg5MDYyNSwieSI6MzMwfSx7IngiOjM0OS44OTA2MjUsInkiOjMzMH0seyJ4IjozNzQuODkwNjI1LCJ5IjozMzB9LHsieCI6NDQwLjk1NDQ1NDc4NzIzNDA2LCJ5IjozMTB9XQ==" marker-end="url(#my-svg_flowchart-v2-pointEnd)"/><path d="M187.943,585L210.768,556.333C233.592,527.667,279.241,470.333,306.233,441.667C333.224,413,341.557,413,349.891,413C358.224,413,366.557,413,374.233,412.412C381.909,411.825,388.927,410.649,392.436,410.062L395.946,409.474" id="L_PI_FPC_0" class="edge-thickness-normal edge-pattern-solid edge-thickness-normal edge-pattern-solid flowchart-link" style=";" data-edge="true" data-et="edge" data-id="L_PI_FPC_0" data-points="W3sieCI6MTg3Ljk0MjkxNzcxMzU2Nzg1LCJ5Ijo1ODV9LHsieCI6MzI0Ljg5MDYyNSwieSI6NDEzfSx7IngiOjM0OS44OTA2MjUsInkiOjQxM30seyJ4IjozNzQuODkwNjI1LCJ5Ijo0MTN9LHsieCI6Mzk5Ljg5MDYyNSwieSI6NDA4LjgxMzIwNDUwODg1Njd9XQ==" marker-end="url(#my-svg_flowchart-v2-pointEnd)"/><path d="M265.102,612L275.066,612C285.031,612,304.961,612,319.092,612C333.224,612,341.557,612,349.891,612C358.224,612,366.557,612,381.464,610.616C396.37,609.233,417.85,606.466,428.59,605.082L439.33,603.699" id="L_PI_CTRL_0" class="edge-thickness-normal edge-pattern-solid edge-thickness-normal edge-pattern-solid flowchart-link" style=";" data-edge="true" data-et="edge" data-id="L_PI_CTRL_0" data-points="W3sieCI6MjY1LjEwMTU2MjUsInkiOjYxMn0seyJ4IjozMjQuODkwNjI1LCJ5Ijo2MTJ9LHsieCI6MzQ5Ljg5MDYyNSwieSI6NjEyfSx7IngiOjM3NC44OTA2MjUsInkiOjYxMn0seyJ4Ijo0NDMuMjk2ODc1LCJ5Ijo2MDMuMTg3NjAwNjQ0MTIyNH1d" marker-end="url(#my-svg_flowchart-v2-pointEnd)"/><path d="M218.616,639L236.329,648.167C254.041,657.333,289.466,675.667,311.345,684.833C333.224,694,341.557,694,349.891,694C358.224,694,366.557,694,381.288,694.136C396.018,694.272,417.146,694.544,427.71,694.68L438.274,694.817" id="L_PI_DASH_0" class="edge-thickness-normal edge-pattern-solid edge-thickness-normal edge-pattern-solid flowchart-link" style=";" data-edge="true" data-et="edge" data-id="L_PI_DASH_0" data-points="W3sieCI6MjE4LjYxNjMzMDAzMDQ4NzgsInkiOjYzOX0seyJ4IjozMjQuODkwNjI1LCJ5Ijo2OTR9LHsieCI6MzQ5Ljg5MDYyNSwieSI6Njk0fSx7IngiOjM3NC44OTA2MjUsInkiOjY5NH0seyJ4Ijo0NDIuMjczNDM3NSwieSI6Njk0Ljg2ODA1NTU1NTU1NTV9XQ==" marker-end="url(#my-svg_flowchart-v2-pointEnd)"/><path d="M182.408,639L206.155,679.167C229.902,719.333,277.396,799.667,305.31,839.833C333.224,880,341.557,880,349.891,880C358.224,880,366.557,880,382.346,878.353C398.136,876.706,421.381,873.412,433.003,871.765L444.626,870.118" id="L_PI_DRV_0" class="edge-thickness-normal edge-pattern-solid edge-thickness-normal edge-pattern-solid flowchart-link" style=";" data-edge="true" data-et="edge" data-id="L_PI_DRV_0" data-points="W3sieCI6MTgyLjQwODA4NjUyMDUyMjM3LCJ5Ijo2Mzl9LHsieCI6MzI0Ljg5MDYyNSwieSI6ODgwfSx7IngiOjM0OS44OTA2MjUsInkiOjg4MH0seyJ4IjozNzQuODkwNjI1LCJ5Ijo4ODB9LHsieCI6NDQ4LjU4NTkzNzUsInkiOjg2OS41NTY4NjM5MjkxNDY1fV0=" marker-end="url(#my-svg_flowchart-v2-pointEnd)"/><path d="M178.462,639L202.867,693.833C227.272,748.667,276.081,858.333,304.653,913.167C333.224,968,341.557,968,349.891,968C358.224,968,366.557,968,377.787,967.727C389.017,967.454,403.143,966.908,410.206,966.635L417.269,966.362" id="L_PI_RSP_0" class="edge-thickness-normal edge-pattern-solid edge-thickness-normal edge-pattern-solid flowchart-link" style=";" data-edge="true" data-et="edge" data-id="L_PI_RSP_0" data-points="W3sieCI6MTc4LjQ2MjIzMjI2ODI1ODQyLCJ5Ijo2Mzl9LHsieCI6MzI0Ljg5MDYyNSwieSI6OTY4fSx7IngiOjM0OS44OTA2MjUsInkiOjk2OH0seyJ4IjozNzQuODkwNjI1LCJ5Ijo5Njh9LHsieCI6NDIxLjI2NTYyNSwieSI6OTY2LjIwNzcyOTQ2ODU5OX1d" marker-end="url(#my-svg_flowchart-v2-pointEnd)"/><path d="M176.68,639L201.382,704.167C226.083,769.333,275.487,899.667,304.355,964.833C333.224,1030,341.557,1030,349.891,1030C358.224,1030,366.557,1030,377.87,1032.209C389.182,1034.419,403.473,1038.837,410.619,1041.046L417.764,1043.256" id="L_PI_PT_0" class="edge-thickness-normal edge-pattern-solid edge-thickness-normal edge-pattern-solid flowchart-link" style=";" data-edge="true" data-et="edge" data-id="L_PI_PT_0" data-points="W3sieCI6MTc2LjY3OTgxODMzMTMzOTcsInkiOjYzOX0seyJ4IjozMjQuODkwNjI1LCJ5IjoxMDMwfSx7IngiOjM0OS44OTA2MjUsInkiOjEwMzB9LHsieCI6Mzc0Ljg5MDYyNSwieSI6MTAzMH0seyJ4Ijo0MjEuNTg1OTM3NSwieSI6MTA0NC40MzcxOTgwNjc2MzI4fV0=" marker-end="url(#my-svg_flowchart-v2-pointEnd)"/><path d="M179.898,925L204.064,876.5C228.229,828,276.56,731,304.892,682.5C333.224,634,341.557,634,349.891,634C358.224,634,366.557,634,381.481,631.09C396.406,628.18,417.921,622.359,428.678,619.449L439.436,616.539" id="L_PIH_CTRL_0" class="edge-thickness-normal edge-pattern-solid edge-thickness-normal edge-pattern-solid flowchart-link" style=";" data-edge="true" data-et="edge" data-id="L_PIH_CTRL_0" data-points="W3sieCI6MTc5Ljg5ODIxNjM5MTUwOTQ0LCJ5Ijo5MjV9LHsieCI6MzI0Ljg5MDYyNSwieSI6NjM0fSx7IngiOjM0OS44OTA2MjUsInkiOjYzNH0seyJ4IjozNzQuODkwNjI1LCJ5Ijo2MzR9LHsieCI6NDQzLjI5Njg3NSwieSI6NjE1LjQ5Mzk2MTM1MjY1N31d" marker-end="url(#my-svg_flowchart-v2-pointEnd)"/><path d="M248.715,925L261.411,920.833C274.107,916.667,299.499,908.333,316.361,904.167C333.224,900,341.557,900,349.891,900C358.224,900,366.557,900,382.363,896.851C398.169,893.703,421.447,887.405,433.086,884.256L444.725,881.108" id="L_PIH_DRV_0" class="edge-thickness-normal edge-pattern-solid edge-thickness-normal edge-pattern-solid flowchart-link" style=";" data-edge="true" data-et="edge" data-id="L_PIH_DRV_0" data-points="W3sieCI6MjQ4LjcxNDk5Mzk5MDM4NDYsInkiOjkyNX0seyJ4IjozMjQuODkwNjI1LCJ5Ijo5MDB9LHsieCI6MzQ5Ljg5MDYyNSwieSI6OTAwfSx7IngiOjM3NC44OTA2MjUsInkiOjkwMH0seyJ4Ijo0NDguNTg1OTM3NSwieSI6ODgwLjA2MzEwMzg2NDczNDN9XQ==" marker-end="url(#my-svg_flowchart-v2-pointEnd)"/><path d="M240.204,979L254.319,984.167C268.433,989.333,296.662,999.667,314.943,1004.833C333.224,1010,341.557,1010,349.891,1010C358.224,1010,366.557,1010,381.407,1006.697C396.257,1003.394,417.624,996.788,428.308,993.485L438.991,990.182" id="L_PIH_RSP_0" class="edge-thickness-normal edge-pattern-solid edge-thickness-normal edge-pattern-solid flowchart-link" style=";" data-edge="true" data-et="edge" data-id="L_PIH_RSP_0" data-points="W3sieCI6MjQwLjIwNDMzNzI4NDQ4Mjc2LCJ5Ijo5Nzl9LHsieCI6MzI0Ljg5MDYyNSwieSI6MTAxMH0seyJ4IjozNDkuODkwNjI1LCJ5IjoxMDEwfSx7IngiOjM3NC44OTA2MjUsInkiOjEwMTB9LHsieCI6NDQyLjgxMjUsInkiOjk4OX1d" marker-end="url(#my-svg_flowchart-v2-pointEnd)"/><path d="M197.901,979L219.066,997.167C240.231,1015.333,282.561,1051.667,307.892,1069.833C333.224,1088,341.557,1088,349.891,1088C358.224,1088,366.557,1088,377.841,1087.542C389.125,1087.083,403.36,1086.166,410.477,1085.708L417.594,1085.249" id="L_PIH_PT_0" class="edge-thickness-normal edge-pattern-solid edge-thickness-normal edge-pattern-solid flowchart-link" style=";" data-edge="true" data-et="edge" data-id="L_PIH_PT_0" data-points="W3sieCI6MTk3LjkwMTM2NzE4NzUsInkiOjk3OX0seyJ4IjozMjQuODkwNjI1LCJ5IjoxMDg4fSx7IngiOjM0OS44OTA2MjUsInkiOjEwODh9LHsieCI6Mzc0Ljg5MDYyNSwieSI6MTA4OH0seyJ4Ijo0MjEuNTg1OTM3NSwieSI6MTA4NC45OTIyNTA0MDI1NzY1fV0=" marker-end="url(#my-svg_flowchart-v2-pointEnd)"/><path d="M271.609,726L280.49,726C289.37,726,307.13,726,320.177,726C333.224,726,341.557,726,349.891,726C358.224,726,366.557,726,381.3,723.956C396.042,721.913,417.194,717.825,427.77,715.782L438.346,713.738" id="L_DO_DASH_0" class="edge-thickness-normal edge-pattern-solid edge-thickness-normal edge-pattern-solid flowchart-link" style=";" data-edge="true" data-et="edge" data-id="L_DO_DASH_0" data-points="W3sieCI6MjcxLjYwOTM3NSwieSI6NzI2fSx7IngiOjMyNC44OTA2MjUsInkiOjcyNn0seyJ4IjozNDkuODkwNjI1LCJ5Ijo3MjZ9LHsieCI6Mzc0Ljg5MDYyNSwieSI6NzI2fSx7IngiOjQ0Mi4yNzM0Mzc1LCJ5Ijo3MTIuOTc5MTY2NjY2NjY2Nn1d" marker-end="url(#my-svg_flowchart-v2-pointEnd)"/></g><g class="edgeLabels"><g class="edgeLabel"><g class="label" data-id="L_SIM_GAZ_0" transform="translate(0, 0)"><foreignObject width="0" height="0"><div xmlns="http://www.w3.org/1999/xhtml" class="labelBkg" style="display: table-cell; white-space: nowrap; line-height: 1.5; max-width: 200px; text-align: center;"><span class="edgeLabel"></span></div></foreignObject></g></g><g class="edgeLabel"><g class="label" data-id="L_SIM_BRIDGE_0" transform="translate(0, 0)"><foreignObject width="0" height="0"><div xmlns="http://www.w3.org/1999/xhtml" class="labelBkg" style="display: table-cell; white-space: nowrap; line-height: 1.5; max-width: 200px; text-align: center;"><span class="edgeLabel"></span></div></foreignObject></g></g><g class="edgeLabel"><g class="label" data-id="L_SIM_JSB_0" transform="translate(0, 0)"><foreignObject width="0" height="0"><div xmlns="http://www.w3.org/1999/xhtml" class="labelBkg" style="display: table-cell; white-space: nowrap; line-height: 1.5; max-width: 200px; text-align: center;"><span class="edgeLabel"></span></div></foreignObject></g></g><g class="edgeLabel"><g class="label" data-id="L_SIM_FPC_0" transform="translate(0, 0)"><foreignObject width="0" height="0"><div xmlns="http://www.w3.org/1999/xhtml" class="labelBkg" style="display: table-cell; white-space: nowrap; line-height: 1.5; max-width: 200px; text-align: center;"><span class="edgeLabel"></span></div></foreignObject></g></g><g class="edgeLabel"><g class="label" data-id="L_SIM_CTRL_0" transform="translate(0, 0)"><foreignObject width="0" height="0"><div xmlns="http://www.w3.org/1999/xhtml" class="labelBkg" style="display: table-cell; white-space: nowrap; line-height: 1.5; max-width: 200px; text-align: center;"><span class="edgeLabel"></span></div></foreignObject></g></g><g class="edgeLabel"><g class="label" data-id="L_SIM_DASH_0" transform="translate(0, 0)"><foreignObject width="0" height="0"><div xmlns="http://www.w3.org/1999/xhtml" class="labelBkg" style="display: table-cell; white-space: nowrap; line-height: 1.5; max-width: 200px; text-align: center;"><span class="edgeLabel"></span></div></foreignObject></g></g><g class="edgeLabel"><g class="label" data-id="L_PC_GAZ_0" transform="translate(0, 0)"><foreignObject width="0" height="0"><div xmlns="http://www.w3.org/1999/xhtml" class="labelBkg" style="display: table-cell; white-space: nowrap; line-height: 1.5; max-width: 200px; text-align: center;"><span class="edgeLabel"></span></div></foreignObject></g></g><g class="edgeLabel"><g class="label" data-id="L_PC_BRIDGE_0" transform="translate(0, 0)"><foreignObject width="0" height="0"><div xmlns="http://www.w3.org/1999/xhtml" class="labelBkg" style="display: table-cell; white-space: nowrap; line-height: 1.5; max-width: 200px; text-align: center;"><span class="edgeLabel"></span></div></foreignObject></g></g><g class="edgeLabel"><g class="label" data-id="L_PC_JSB_0" transform="translate(0, 0)"><foreignObject width="0" height="0"><div xmlns="http://www.w3.org/1999/xhtml" class="labelBkg" style="display: table-cell; white-space: nowrap; line-height: 1.5; max-width: 200px; text-align: center;"><span class="edgeLabel"></span></div></foreignObject></g></g><g class="edgeLabel"><g class="label" data-id="L_PC_FPC_0" transform="translate(0, 0)"><foreignObject width="0" height="0"><div xmlns="http://www.w3.org/1999/xhtml" class="labelBkg" style="display: table-cell; white-space: nowrap; line-height: 1.5; max-width: 200px; text-align: center;"><span class="edgeLabel"></span></div></foreignObject></g></g><g class="edgeLabel"><g class="label" data-id="L_PC_CTRL_0" transform="translate(0, 0)"><foreignObject width="0" height="0"><div xmlns="http://www.w3.org/1999/xhtml" class="labelBkg" style="display: table-cell; white-space: nowrap; line-height: 1.5; max-width: 200px; text-align: center;"><span class="edgeLabel"></span></div></foreignObject></g></g><g class="edgeLabel"><g class="label" data-id="L_PC_DASH_0" transform="translate(0, 0)"><foreignObject width="0" height="0"><div xmlns="http://www.w3.org/1999/xhtml" class="labelBkg" style="display: table-cell; white-space: nowrap; line-height: 1.5; max-width: 200px; text-align: center;"><span class="edgeLabel"></span></div></foreignObject></g></g><g class="edgeLabel"><g class="label" data-id="L_PC_DRV_0" transform="translate(0, 0)"><foreignObject width="0" height="0"><div xmlns="http://www.w3.org/1999/xhtml" class="labelBkg" style="display: table-cell; white-space: nowrap; line-height: 1.5; max-width: 200px; text-align: center;"><span class="edgeLabel"></span></div></foreignObject></g></g><g class="edgeLabel"><g class="label" data-id="L_PC_RSP_0" transform="translate(0, 0)"><foreignObject width="0" height="0"><div xmlns="http://www.w3.org/1999/xhtml" class="labelBkg" style="display: table-cell; white-space: nowrap; line-height: 1.5; max-width: 200px; text-align: center;"><span class="edgeLabel"></span></div></foreignObject></g></g><g class="edgeLabel"><g class="label" data-id="L_PI_GAZ_0" transform="translate(0, 0)"><foreignObject width="0" height="0"><div xmlns="http://www.w3.org/1999/xhtml" class="labelBkg" style="display: table-cell; white-space: nowrap; line-height: 1.5; max-width: 200px; text-align: center;"><span class="edgeLabel"></span></div></foreignObject></g></g><g class="edgeLabel"><g class="label" data-id="L_PI_BRIDGE_0" transform="translate(0, 0)"><foreignObject width="0" height="0"><div xmlns="http://www.w3.org/1999/xhtml" class="labelBkg" style="display: table-cell; white-space: nowrap; line-height: 1.5; max-width: 200px; text-align: center;"><span class="edgeLabel"></span></div></foreignObject></g></g><g class="edgeLabel"><g class="label" data-id="L_PI_JSB_0" transform="translate(0, 0)"><foreignObject width="0" height="0"><div xmlns="http://www.w3.org/1999/xhtml" class="labelBkg" style="display: table-cell; white-space: nowrap; line-height: 1.5; max-width: 200px; text-align: center;"><span class="edgeLabel"></span></div></foreignObject></g></g><g class="edgeLabel"><g class="label" data-id="L_PI_FPC_0" transform="translate(0, 0)"><foreignObject width="0" height="0"><div xmlns="http://www.w3.org/1999/xhtml" class="labelBkg" style="display: table-cell; white-space: nowrap; line-height: 1.5; max-width: 200px; text-align: center;"><span class="edgeLabel"></span></div></foreignObject></g></g><g class="edgeLabel"><g class="label" data-id="L_PI_CTRL_0" transform="translate(0, 0)"><foreignObject width="0" height="0"><div xmlns="http://www.w3.org/1999/xhtml" class="labelBkg" style="display: table-cell; white-space: nowrap; line-height: 1.5; max-width: 200px; text-align: center;"><span class="edgeLabel"></span></div></foreignObject></g></g><g class="edgeLabel"><g class="label" data-id="L_PI_DASH_0" transform="translate(0, 0)"><foreignObject width="0" height="0"><div xmlns="http://www.w3.org/1999/xhtml" class="labelBkg" style="display: table-cell; white-space: nowrap; line-height: 1.5; max-width: 200px; text-align: center;"><span class="edgeLabel"></span></div></foreignObject></g></g><g class="edgeLabel"><g class="label" data-id="L_PI_DRV_0" transform="translate(0, 0)"><foreignObject width="0" height="0"><div xmlns="http://www.w3.org/1999/xhtml" class="labelBkg" style="display: table-cell; white-space: nowrap; line-height: 1.5; max-width: 200px; text-align: center;"><span class="edgeLabel"></span></div></foreignObject></g></g><g class="edgeLabel"><g class="label" data-id="L_PI_RSP_0" transform="translate(0, 0)"><foreignObject width="0" height="0"><div xmlns="http://www.w3.org/1999/xhtml" class="labelBkg" style="display: table-cell; white-space: nowrap; line-height: 1.5; max-width: 200px; text-align: center;"><span class="edgeLabel"></span></div></foreignObject></g></g><g class="edgeLabel"><g class="label" data-id="L_PI_PT_0" transform="translate(0, 0)"><foreignObject width="0" height="0"><div xmlns="http://www.w3.org/1999/xhtml" class="labelBkg" style="display: table-cell; white-space: nowrap; line-height: 1.5; max-width: 200px; text-align: center;"><span class="edgeLabel"></span></div></foreignObject></g></g><g class="edgeLabel"><g class="label" data-id="L_PIH_CTRL_0" transform="translate(0, 0)"><foreignObject width="0" height="0"><div xmlns="http://www.w3.org/1999/xhtml" class="labelBkg" style="display: table-cell; white-space: nowrap; line-height: 1.5; max-width: 200px; text-align: center;"><span class="edgeLabel"></span></div></foreignObject></g></g><g class="edgeLabel"><g class="label" data-id="L_PIH_DRV_0" transform="translate(0, 0)"><foreignObject width="0" height="0"><div xmlns="http://www.w3.org/1999/xhtml" class="labelBkg" style="display: table-cell; white-space: nowrap; line-height: 1.5; max-width: 200px; text-align: center;"><span class="edgeLabel"></span></div></foreignObject></g></g><g class="edgeLabel"><g class="label" data-id="L_PIH_RSP_0" transform="translate(0, 0)"><foreignObject width="0" height="0"><div xmlns="http://www.w3.org/1999/xhtml" class="labelBkg" style="display: table-cell; white-space: nowrap; line-height: 1.5; max-width: 200px; text-align: center;"><span class="edgeLabel"></span></div></foreignObject></g></g><g class="edgeLabel"><g class="label" data-id="L_PIH_PT_0" transform="translate(0, 0)"><foreignObject width="0" height="0"><div xmlns="http://www.w3.org/1999/xhtml" class="labelBkg" style="display: table-cell; white-space: nowrap; line-height: 1.5; max-width: 200px; text-align: center;"><span class="edgeLabel"></span></div></foreignObject></g></g><g class="edgeLabel"><g class="label" data-id="L_DO_DASH_0" transform="translate(0, 0)"><foreignObject width="0" height="0"><div xmlns="http://www.w3.org/1999/xhtml" class="labelBkg" style="display: table-cell; white-space: nowrap; line-height: 1.5; max-width: 200px; text-align: center;"><span class="edgeLabel"></span></div></foreignObject></g></g></g><g class="nodes"><g class="node default mode" id="flowchart-SIM-0" transform="translate(166.4453125, 293)"><rect class="basic label-container" style="fill:#E8A838 !important;stroke:#A06B1F !important" x="-66.109375" y="-27" width="132.21875" height="54"/><g class="label" style="color:#fff !important" transform="translate(-36.109375, -12)"><rect/><foreignObject width="72.21875" height="24"><div style="color: rgb(255, 255, 255) !important; display: table-cell; white-space: nowrap; line-height: 1.5; max-width: 200px; text-align: center;" xmlns="http://www.w3.org/1999/xhtml"><span style="color:#fff !important" class="nodeLabel"><p>mode=sim</p></span></div></foreignObject></g></g><g class="node default mode" id="flowchart-PC-1" transform="translate(166.4453125, 469)"><rect class="basic label-container" style="fill:#E8A838 !important;stroke:#A06B1F !important" x="-100.3359375" y="-27" width="200.671875" height="54"/><g class="label" style="color:#fff !important" transform="translate(-70.3359375, -12)"><rect/><foreignObject width="140.671875" height="24"><div style="color: rgb(255, 255, 255) !important; display: table-cell; white-space: nowrap; line-height: 1.5; max-width: 200px; text-align: center;" xmlns="http://www.w3.org/1999/xhtml"><span style="color:#fff !important" class="nodeLabel"><p>mode=pc_hardware</p></span></div></foreignObject></g></g><g class="node default mode" id="flowchart-PI-2" transform="translate(166.4453125, 612)"><rect class="basic label-container" style="fill:#E8A838 !important;stroke:#A06B1F !important" x="-98.65625" y="-27" width="197.3125" height="54"/><g class="label" style="color:#fff !important" transform="translate(-68.65625, -12)"><rect/><foreignObject width="137.3125" height="24"><div style="color: rgb(255, 255, 255) !important; display: table-cell; white-space: nowrap; line-height: 1.5; max-width: 200px; text-align: center;" xmlns="http://www.w3.org/1999/xhtml"><span style="color:#fff !important" class="nodeLabel"><p>mode=pi_hardware</p></span></div></foreignObject></g></g><g class="node default mode" id="flowchart-PIH-3" transform="translate(166.4453125, 952)"><rect class="basic label-container" style="fill:#E8A838 !important;stroke:#A06B1F !important" x="-133.4453125" y="-27" width="266.890625" height="54"/><g class="label" style="color:#fff !important" transform="translate(-103.4453125, -12)"><rect/><foreignObject width="206.890625" height="24"><div style="color: rgb(255, 255, 255) !important; display: table; white-space: break-spaces; line-height: 1.5; max-width: 200px; text-align: center; width: 200px;" xmlns="http://www.w3.org/1999/xhtml"><span style="color:#fff !important" class="nodeLabel"><p>mode=pi_hardware_headless</p></span></div></foreignObject></g></g><g class="node default mode" id="flowchart-DO-4" transform="translate(166.4453125, 726)"><rect class="basic label-container" style="fill:#E8A838 !important;stroke:#A06B1F !important" x="-105.1640625" y="-27" width="210.328125" height="54"/><g class="label" style="color:#fff !important" transform="translate(-75.1640625, -12)"><rect/><foreignObject width="150.328125" height="24"><div style="color: rgb(255, 255, 255) !important; display: table-cell; white-space: nowrap; line-height: 1.5; max-width: 200px; text-align: center;" xmlns="http://www.w3.org/1999/xhtml"><span style="color:#fff !important" class="nodeLabel"><p>dashboard_only=true</p></span></div></foreignObject></g></g><g class="node default simn" id="flowchart-GAZ-5" transform="translate(530.140625, 75)"><rect class="basic label-container" style="fill:#9B59B6 !important;stroke:#6C3483 !important" x="-90.3046875" y="-27" width="180.609375" height="54"/><g class="label" style="color:#fff !important" transform="translate(-60.3046875, -12)"><rect/><foreignObject width="120.609375" height="24"><div style="color: rgb(255, 255, 255) !important; display: table-cell; white-space: nowrap; line-height: 1.5; max-width: 200px; text-align: center;" xmlns="http://www.w3.org/1999/xhtml"><span style="color:#fff !important" class="nodeLabel"><p>Gazebo + SO-101</p></span></div></foreignObject></g></g><g class="node default simn" id="flowchart-BRIDGE-6" transform="translate(530.140625, 179)"><rect class="basic label-container" style="fill:#9B59B6 !important;stroke:#6C3483 !important" x="-65.5234375" y="-27" width="131.046875" height="54"/><g class="label" style="color:#fff !important" transform="translate(-35.5234375, -12)"><rect/><foreignObject width="71.046875" height="24"><div style="color: rgb(255, 255, 255) !important; display: table-cell; white-space: nowrap; line-height: 1.5; max-width: 200px; text-align: center;" xmlns="http://www.w3.org/1999/xhtml"><span style="color:#fff !important" class="nodeLabel"><p>SimBridge</p></span></div></foreignObject></g></g><g class="node default simn" id="flowchart-JSB-7" transform="translate(530.140625, 283)"><rect class="basic label-container" style="fill:#9B59B6 !important;stroke:#6C3483 !important" x="-116.15625" y="-27" width="232.3125" height="54"/><g class="label" style="color:#fff !important" transform="translate(-86.15625, -12)"><rect/><foreignObject width="172.3125" height="24"><div style="color: rgb(255, 255, 255) !important; display: table-cell; white-space: nowrap; line-height: 1.5; max-width: 200px; text-align: center;" xmlns="http://www.w3.org/1999/xhtml"><span style="color:#fff !important" class="nodeLabel"><p>joint_state_broadcaster</p></span></div></foreignObject></g></g><g class="node default simn" id="flowchart-FPC-8" transform="translate(530.140625, 387)"><rect class="basic label-container" style="fill:#9B59B6 !important;stroke:#6C3483 !important" x="-130.25" y="-27" width="260.5" height="54"/><g class="label" style="color:#fff !important" transform="translate(-100.25, -12)"><rect/><foreignObject width="200.5" height="24"><div style="color: rgb(255, 255, 255) !important; display: table; white-space: break-spaces; line-height: 1.5; max-width: 200px; text-align: center; width: 200px;" xmlns="http://www.w3.org/1999/xhtml"><span style="color:#fff !important" class="nodeLabel"><p>forward_position_controller</p></span></div></foreignObject></g></g><g class="node default core" id="flowchart-CTRL-9" transform="translate(530.140625, 592)"><rect class="basic label-container" style="fill:#4A90E2 !important;stroke:#2B5C8A !important" x="-86.84375" y="-27" width="173.6875" height="54"/><g class="label" style="color:#fff !important" transform="translate(-56.84375, -12)"><rect/><foreignObject width="113.6875" height="24"><div style="color: rgb(255, 255, 255) !important; display: table-cell; white-space: nowrap; line-height: 1.5; max-width: 200px; text-align: center;" xmlns="http://www.w3.org/1999/xhtml"><span style="color:#fff !important" class="nodeLabel"><p>Controller Node</p></span></div></foreignObject></g></g><g class="node default core" id="flowchart-DASH-10" transform="translate(530.140625, 696)"><rect class="basic label-container" style="fill:#4A90E2 !important;stroke:#2B5C8A !important" x="-87.8671875" y="-27" width="175.734375" height="54"/><g class="label" style="color:#fff !important" transform="translate(-57.8671875, -12)"><rect/><foreignObject width="115.734375" height="24"><div style="color: rgb(255, 255, 255) !important; display: table-cell; white-space: nowrap; line-height: 1.5; max-width: 200px; text-align: center;" xmlns="http://www.w3.org/1999/xhtml"><span style="color:#fff !important" class="nodeLabel"><p>Dashboard Node</p></span></div></foreignObject></g></g><g class="node default hw" id="flowchart-DRV-11" transform="translate(530.140625, 858)"><rect class="basic label-container" style="fill:#C75050 !important;stroke:#8A2D2D !important" x="-81.5546875" y="-27" width="163.109375" height="54"/><g class="label" style="color:#fff !important" transform="translate(-51.5546875, -12)"><rect/><foreignObject width="103.109375" height="24"><div style="color: rgb(255, 255, 255) !important; display: table-cell; white-space: nowrap; line-height: 1.5; max-width: 200px; text-align: center;" xmlns="http://www.w3.org/1999/xhtml"><span style="color:#fff !important" class="nodeLabel"><p>scservo_driver</p></span></div></foreignObject></g></g><g class="node default hw" id="flowchart-RSP-12" transform="translate(530.140625, 962)"><rect class="basic label-container" style="fill:#C75050 !important;stroke:#8A2D2D !important" x="-108.875" y="-27" width="217.75" height="54"/><g class="label" style="color:#fff !important" transform="translate(-78.875, -12)"><rect/><foreignObject width="157.75" height="24"><div style="color: rgb(255, 255, 255) !important; display: table-cell; white-space: nowrap; line-height: 1.5; max-width: 200px; text-align: center;" xmlns="http://www.w3.org/1999/xhtml"><span style="color:#fff !important" class="nodeLabel"><p>robot_state_publisher</p></span></div></foreignObject></g></g><g class="node default" id="flowchart-PT-13" transform="translate(530.140625, 1078)"><rect class="basic label-container" style="" x="-108.5546875" y="-39" width="217.109375" height="78"/><g class="label" style="" transform="translate(-78.5546875, -24)"><rect/><foreignObject width="157.109375" height="48"><div xmlns="http://www.w3.org/1999/xhtml" style="display: table-cell; white-space: nowrap; line-height: 1.5; max-width: 200px; text-align: center;"><span class="nodeLabel"><p>pump_test<br />(GPIO button + pump)</p></span></div></foreignObject></g></g></g></g></g></svg>